<?xml version="1.0" encoding="UTF-8"?><svg id="Layer_1" xmlns="http://www.w3.org/2000/svg" viewBox="0 0 256 256"><defs><style>.cls-1{fill:#e5d65e;stroke-width:0px;}</style></defs><path class="cls-1" d="m124.69,48.52h-.01s-.01,0-.01,0L45.33,127.98l47.88,47.88,31.43,31.62h.01s0,0,0,0l31.44-31.63,31.69-31.69,16.19-16.18L124.69,48.52Zm-62.12,95.29l2.45-2.45c8.48,2.85,17.52,3.14,26.19.84l21.09,21.09c-7.07,2.24-13.52,6.2-18.73,11.52l-31-31Zm42.86,7.27c5.5,3.68,12.71,15.11,16.4,21.38l-8.44-9.52h-.02l-21.04-21.04h-.02c4.6-1.37,8.91-3.43,12.85-6.12.87,4.88.93,9.9.05,14.8l-.06.32.28.18Zm.82-.64c1.85-10.81-.65-22.2-6.62-31.44l25.01,25.16h.01s0,0,0,0l25.01-25.16c-5.97,9.24-8.47,20.63-6.62,31.44-6.95,4.9-16.24,21.06-18.4,24.91-2.14-3.83-11.44-20.01-18.4-24.91Zm37.63.64l.27-.18-.06-.32c-.88-4.9-.82-9.92.05-14.8,3.94,2.69,8.25,4.75,12.85,6.11h-.02s-21.03,21.05-21.03,21.05h-.02l-8.45,9.52c3.69-6.26,10.9-17.7,16.41-21.38Zm.49-16.34c1.61-8.01,5.58-15.63,11.22-21.59.08-.08.15-.16.23-.24l15.08,15.07-13.11,13.11c-4.82-1.37-9.33-3.5-13.42-6.35Zm-19.72,8.01l-30.42-30.6c.53-.52,1.04-1.04,1.57-1.57,9.96-9.9,20.23-20.13,28.85-29.01,8.62,8.88,18.88,19.1,28.83,29,.54.53,1.06,1.05,1.59,1.58l-30.42,30.6Zm-19.72-8.01c-4.09,2.85-8.6,4.98-13.42,6.35l-13.11-13.11,15.08-15.07c.08.08.16.16.23.24,5.64,5.96,9.61,13.58,11.22,21.59Zm19.72,71.33l-30.39-30.57c5.22-5.32,11.7-9.26,18.8-11.42l11.08,12.49.33.35.19-.14.2.12,11.38-12.82c7.1,2.16,13.58,6.1,18.8,11.42l-30.39,30.57Zm31.08-31.26c-5.21-5.32-11.66-9.28-18.73-11.52l21.09-21.08h0c8.67,2.29,17.72,2,26.19-.85l2.45,2.45-31,31Zm31.71-31.71l-2.89-2.89-.29.11c-8.2,2.81-16.94,3.18-25.35,1.07l13.4-13.41-47.66-47.82-47.66,47.82,13.4,13.41c-8.41,2.11-17.15,1.74-25.34-1.07l-.3-.11-2.89,2.89-15.12-15.12L124.68,49.93l77.88,78.05-15.12,15.12Z"/></svg>