<?xml version="1.0" encoding="UTF-8"?><svg id="Layer_1" xmlns="http://www.w3.org/2000/svg" viewBox="0 0 256 256"><defs><style>.cls-1{fill:#e5d65e;stroke-width:0px;}</style></defs><path class="cls-1" d="m124.7,48.5h0s0,0,0,0L45.3,128l47.9,47.9,31.4,31.6h0s0,0,0,0l31.4-31.6,31.7-31.7,16.2-16.2L124.7,48.5Zm-62.1,95.3l2.5-2.5c8.5,2.8,17.5,3.1,26.2.8l21.1,21.1c-7.1,2.2-13.5,6.2-18.7,11.5l-31-31Zm42.9,7.3c5.5,3.7,12.7,15.1,16.4,21.4l-8.4-9.5h0l-21-21h0c4.6-1.4,8.9-3.4,12.8-6.1.9,4.9.9,9.9,0,14.8v.3c0,0,.2.2.2.2Zm.8-.6c1.8-10.8-.7-22.2-6.6-31.4l25,25.2h0s0,0,0,0l25-25.2c-6,9.2-8.5,20.6-6.6,31.4-7,4.9-16.2,21.1-18.4,24.9-2.1-3.8-11.4-20-18.4-24.9Zm37.6.6l.3-.2v-.3c-.9-4.9-.9-9.9,0-14.8,3.9,2.7,8.2,4.8,12.8,6.1h0s-21,21-21,21h0l-8.5,9.5c3.7-6.3,10.9-17.7,16.4-21.4Zm.5-16.3c1.6-8,5.6-15.6,11.2-21.6,0,0,.1-.2.2-.2l15.1,15.1-13.1,13.1c-4.8-1.4-9.3-3.5-13.4-6.3Zm-19.7,8l-30.4-30.6c.5-.5,1-1,1.6-1.6,10-9.9,20.2-20.1,28.9-29,8.6,8.9,18.9,19.1,28.8,29,.5.5,1.1,1,1.6,1.6l-30.4,30.6Zm-19.7-8c-4.1,2.8-8.6,5-13.4,6.3l-13.1-13.1,15.1-15.1c0,0,.2.2.2.2,5.6,6,9.6,13.6,11.2,21.6Zm19.7,71.3l-30.4-30.6c5.2-5.3,11.7-9.3,18.8-11.4l11.1,12.5.3.3h.2c0-.1.2,0,.2,0l11.4-12.8c7.1,2.2,13.6,6.1,18.8,11.4l-30.4,30.6Zm31.1-31.3c-5.2-5.3-11.7-9.3-18.7-11.5l21.1-21.1h0c8.7,2.3,17.7,2,26.2-.8l2.4,2.5-31,31Zm31.7-31.7l-2.9-2.9h-.3c-8.2,2.9-16.9,3.3-25.4,1.2l13.4-13.4-47.7-47.8-47.7,47.8,13.4,13.4c-8.4,2.1-17.2,1.7-25.3-1.1h-.3c0-.1-2.9,2.8-2.9,2.8l-15.1-15.1L124.7,49.9l77.9,78-15.1,15.1Z"/></svg>